<svg id="svg" version="1.1" xmlns="http://www.w3.org/2000/svg" xmlns:xlink="http://www.w3.org/1999/xlink" width="400" height="368.25396825396825" viewBox="0, 0, 400,368.25396825396825"><g id="svgg"><path id="path0" d="M87.293 149.502 C 87.293 149.684,86.133 149.950,84.715 150.092 C 83.297 150.234,82.136 150.481,82.136 150.640 C 82.136 150.798,81.225 151.042,80.110 151.181 C 78.996 151.320,78.085 151.588,78.085 151.776 C 78.085 151.964,77.753 152.118,77.348 152.118 C 76.943 152.118,76.611 152.262,76.611 152.439 C 76.611 152.616,75.948 152.866,75.138 152.996 C 74.328 153.126,73.665 153.382,73.665 153.566 C 73.665 153.750,73.168 154.010,72.560 154.144 C 71.952 154.277,71.455 154.520,71.455 154.684 C 71.455 154.848,70.875 155.091,70.166 155.224 C 69.457 155.357,68.877 155.624,68.877 155.818 C 68.877 156.011,68.646 156.169,68.364 156.169 C 68.081 156.169,67.755 156.418,67.638 156.722 C 67.522 157.026,67.090 157.274,66.678 157.274 C 66.267 157.274,65.930 157.440,65.930 157.643 C 65.930 157.845,65.718 158.011,65.459 158.011 C 65.201 158.011,64.705 158.343,64.358 158.748 C 64.011 159.153,63.516 159.484,63.259 159.484 C 63.001 159.484,62.479 159.899,62.098 160.405 C 61.718 160.912,61.249 161.326,61.057 161.326 C 60.577 161.326,55.632 166.203,55.623 166.684 C 55.620 166.896,55.127 167.476,54.528 167.973 C 53.928 168.470,53.431 169.149,53.423 169.482 C 53.414 169.815,53.158 170.182,52.855 170.299 C 52.551 170.416,52.302 170.765,52.302 171.075 C 52.302 171.385,52.147 171.639,51.959 171.639 C 51.770 171.639,51.499 172.004,51.357 172.451 C 51.216 172.897,50.873 173.489,50.596 173.766 C 50.319 174.043,50.092 174.507,50.092 174.796 C 50.092 175.086,49.926 175.322,49.724 175.322 C 49.521 175.322,49.355 175.571,49.355 175.875 C 49.355 176.179,49.203 176.427,49.016 176.427 C 48.830 176.427,48.568 176.924,48.435 177.532 C 48.301 178.140,48.053 178.637,47.882 178.637 C 47.712 178.637,47.463 179.134,47.330 179.742 C 47.196 180.350,46.956 180.847,46.795 180.847 C 46.634 180.847,46.397 181.510,46.267 182.320 C 46.138 183.131,45.868 183.794,45.668 183.794 C 45.468 183.794,45.304 184.208,45.304 184.715 C 45.304 185.221,45.157 185.635,44.977 185.635 C 44.798 185.635,44.539 186.381,44.402 187.293 C 44.266 188.204,44.017 188.950,43.851 188.950 C 43.684 188.950,43.429 190.069,43.283 191.436 C 43.137 192.804,42.827 194.041,42.595 194.185 C 42.008 194.551,41.997 212.806,42.585 213.181 C 42.811 213.326,43.114 214.563,43.258 215.930 C 43.403 217.297,43.658 218.416,43.825 218.416 C 43.993 218.416,44.244 219.245,44.383 220.258 C 44.522 221.271,44.787 222.099,44.970 222.099 C 45.154 222.099,45.304 222.431,45.304 222.836 C 45.304 223.241,45.455 223.573,45.640 223.573 C 45.825 223.573,46.088 224.236,46.225 225.046 C 46.362 225.856,46.612 226.519,46.780 226.519 C 46.949 226.519,47.196 227.017,47.330 227.624 C 47.463 228.232,47.706 228.729,47.870 228.729 C 48.034 228.729,48.277 229.309,48.410 230.018 C 48.543 230.727,48.810 231.308,49.004 231.308 C 49.197 231.308,49.355 231.556,49.355 231.860 C 49.355 232.164,49.503 232.413,49.684 232.413 C 49.864 232.413,50.116 232.827,50.243 233.333 C 50.370 233.840,50.637 234.254,50.836 234.254 C 51.034 234.254,51.197 234.508,51.197 234.818 C 51.197 235.128,51.431 235.472,51.716 235.581 C 52.002 235.691,52.337 236.183,52.460 236.675 C 52.583 237.167,52.847 237.569,53.046 237.569 C 53.244 237.569,53.407 237.748,53.407 237.966 C 53.407 238.184,53.904 238.860,54.512 239.467 C 55.120 240.075,55.617 240.741,55.617 240.946 C 55.617 241.417,60.377 246.041,60.861 246.041 C 61.059 246.041,61.546 246.455,61.944 246.961 C 62.343 247.468,62.845 247.882,63.060 247.882 C 63.275 247.882,63.838 248.300,64.311 248.810 C 64.784 249.320,65.668 249.837,66.276 249.959 C 66.884 250.080,67.477 250.480,67.593 250.847 C 67.710 251.214,68.295 251.622,68.893 251.753 C 69.492 251.885,69.982 252.126,69.982 252.290 C 69.982 252.454,70.562 252.697,71.271 252.830 C 71.980 252.963,72.560 253.217,72.560 253.394 C 72.560 253.572,73.057 253.826,73.665 253.959 C 74.273 254.093,74.770 254.355,74.770 254.541 C 74.770 254.728,75.184 254.880,75.691 254.880 C 76.197 254.880,76.611 255.036,76.611 255.226 C 76.611 255.416,77.357 255.684,78.269 255.820 C 79.180 255.957,79.926 256.200,79.926 256.359 C 79.926 256.519,80.962 256.769,82.228 256.914 C 83.494 257.060,84.640 257.353,84.775 257.565 C 84.921 257.796,87.426 258.020,91.017 258.124 L 97.014 258.297 98.231 259.587 L 99.448 260.877 99.448 285.319 C 99.448 302.028,99.569 309.761,99.831 309.761 C 100.297 309.761,100.833 309.321,102.914 307.230 C 103.795 306.345,104.682 305.455,104.884 305.252 C 105.087 305.050,105.998 304.138,106.910 303.227 C 107.822 302.315,108.733 301.404,108.936 301.201 C 109.138 300.998,110.050 300.087,110.962 299.175 C 111.873 298.264,112.785 297.352,112.987 297.149 C 113.190 296.947,114.080 296.057,114.965 295.173 C 115.850 294.288,117.027 293.106,117.580 292.546 C 118.132 291.987,119.044 291.076,119.605 290.523 C 120.167 289.971,121.079 289.059,121.633 288.498 C 122.186 287.936,123.347 286.775,124.211 285.917 C 125.075 285.059,125.992 284.148,126.247 283.891 C 126.502 283.635,127.457 282.680,128.369 281.768 C 129.280 280.856,130.192 279.945,130.394 279.742 C 130.597 279.540,131.465 278.672,132.324 277.814 C 133.183 276.955,134.338 275.795,134.891 275.235 C 135.444 274.675,136.355 273.765,136.917 273.212 C 137.478 272.659,138.390 271.748,138.942 271.186 C 139.495 270.625,140.407 269.713,140.968 269.161 C 141.530 268.608,142.442 267.696,142.996 267.135 C 143.549 266.573,144.709 265.412,145.574 264.554 C 146.438 263.696,147.311 262.822,147.514 262.610 C 147.716 262.399,148.848 261.325,150.028 260.224 L 152.173 258.222 189.175 258.116 C 216.994 258.037,226.244 257.904,226.445 257.579 C 226.592 257.341,227.746 257.030,229.010 256.887 C 230.274 256.744,231.308 256.493,231.308 256.329 C 231.308 256.165,232.053 255.919,232.965 255.782 C 233.877 255.645,234.622 255.386,234.622 255.207 C 234.622 255.027,235.037 254.880,235.543 254.880 C 236.050 254.880,236.464 254.728,236.464 254.541 C 236.464 254.355,236.961 254.093,237.569 253.959 C 238.177 253.826,238.674 253.577,238.674 253.407 C 238.674 253.237,239.171 252.988,239.779 252.855 C 240.387 252.721,240.884 252.467,240.884 252.289 C 240.884 252.112,241.458 251.859,242.161 251.728 C 242.920 251.585,243.522 251.220,243.647 250.827 C 243.763 250.463,244.285 250.058,244.809 249.926 C 245.333 249.795,245.984 249.488,246.256 249.245 C 247.444 248.184,247.872 247.882,248.183 247.882 C 248.366 247.882,248.827 247.468,249.207 246.961 C 249.587 246.455,250.053 246.041,250.241 246.041 C 250.429 246.041,250.845 245.793,251.166 245.490 C 254.024 242.794,255.249 241.507,255.249 241.198 C 255.249 240.998,255.806 240.307,256.486 239.662 C 257.167 239.017,257.841 238.117,257.985 237.661 C 258.128 237.205,258.399 236.832,258.588 236.832 C 258.777 236.832,258.932 236.592,258.932 236.298 C 258.932 236.004,259.139 235.631,259.392 235.469 C 259.931 235.125,260.703 233.974,261.011 233.057 C 261.130 232.703,261.361 232.413,261.524 232.413 C 261.687 232.413,261.929 231.915,262.063 231.308 C 262.196 230.700,262.439 230.203,262.603 230.203 C 262.767 230.203,263.010 229.622,263.143 228.913 C 263.276 228.204,263.543 227.624,263.737 227.624 C 263.930 227.624,264.088 227.376,264.088 227.072 C 264.088 226.768,264.240 226.519,264.424 226.519 C 264.609 226.519,264.872 225.856,265.009 225.046 C 265.146 224.236,265.399 223.573,265.572 223.573 C 265.744 223.573,265.997 222.827,266.133 221.915 C 266.270 221.004,266.517 220.258,266.682 220.258 C 266.847 220.258,267.096 219.346,267.235 218.232 C 267.374 217.118,267.620 216.206,267.781 216.206 C 267.942 216.206,268.191 214.797,268.335 213.076 C 268.478 211.354,268.742 209.945,268.920 209.945 C 269.099 209.945,269.245 207.210,269.245 203.867 C 269.245 200.525,269.103 197.790,268.930 197.790 C 268.756 197.790,268.501 196.428,268.362 194.764 C 268.223 193.099,267.976 191.649,267.813 191.541 C 267.650 191.433,267.407 190.525,267.273 189.523 C 267.139 188.521,266.881 187.609,266.700 187.497 C 266.519 187.385,266.253 186.506,266.108 185.543 C 265.964 184.581,265.717 183.794,265.560 183.794 C 265.402 183.794,265.163 183.338,265.029 182.781 C 264.686 181.362,263.956 179.742,263.659 179.742 C 263.522 179.742,263.301 179.245,263.168 178.637 C 263.034 178.029,262.785 177.532,262.615 177.532 C 262.445 177.532,262.196 177.035,262.063 176.427 C 261.929 175.820,261.685 175.322,261.521 175.322 C 261.356 175.322,261.118 174.908,260.991 174.401 C 260.863 173.895,260.597 173.481,260.398 173.481 C 260.199 173.481,260.037 173.232,260.037 172.928 C 260.037 172.624,259.874 172.376,259.676 172.376 C 259.477 172.376,259.213 171.973,259.090 171.482 C 258.966 170.990,258.632 170.498,258.346 170.388 C 258.061 170.279,257.827 169.927,257.827 169.607 C 257.827 169.011,256.128 167.219,255.563 167.219 C 255.390 167.219,255.249 166.982,255.249 166.691 C 255.249 166.000,250.787 161.479,249.794 161.164 C 249.371 161.030,248.922 160.597,248.797 160.202 C 248.672 159.807,248.357 159.484,248.098 159.484 C 247.839 159.484,247.244 159.153,246.777 158.748 C 246.310 158.343,245.705 158.011,245.432 158.011 C 245.159 158.011,244.936 157.845,244.936 157.643 C 244.936 157.440,244.682 157.274,244.371 157.274 C 244.061 157.274,243.712 157.026,243.595 156.722 C 243.479 156.418,243.070 156.169,242.686 156.169 C 242.303 156.169,241.989 156.017,241.989 155.830 C 241.989 155.644,241.492 155.382,240.884 155.249 C 240.276 155.115,239.779 154.867,239.779 154.696 C 239.779 154.526,239.282 154.277,238.674 154.144 C 238.066 154.010,237.569 153.750,237.569 153.566 C 237.569 153.382,236.906 153.126,236.096 152.996 C 235.285 152.866,234.622 152.616,234.622 152.439 C 234.622 152.262,234.222 152.118,233.732 152.118 C 233.243 152.118,232.786 151.949,232.717 151.743 C 232.648 151.537,231.723 151.265,230.661 151.139 C 229.598 151.013,228.729 150.778,228.729 150.616 C 228.729 150.453,227.569 150.207,226.151 150.067 C 224.733 149.927,223.573 149.668,223.573 149.492 C 223.573 149.311,193.873 149.171,155.433 149.171 C 115.383 149.171,87.293 149.308,87.293 149.502 M108.453 191.185 C 108.645 191.374,109.184 191.529,109.650 191.529 C 110.116 191.529,110.497 191.694,110.497 191.897 C 110.497 192.099,110.733 192.265,111.020 192.265 C 111.701 192.265,116.022 196.586,116.022 197.267 C 116.022 197.555,116.188 197.790,116.390 197.790 C 116.593 197.790,116.759 198.191,116.759 198.680 C 116.759 199.170,116.955 199.636,117.194 199.715 C 117.490 199.814,117.629 201.028,117.629 203.499 C 117.629 205.971,117.490 207.184,117.194 207.283 C 116.955 207.363,116.759 207.828,116.759 208.318 C 116.759 208.808,116.593 209.208,116.390 209.208 C 116.188 209.208,116.022 209.384,116.022 209.598 C 116.022 210.874,110.898 215.470,109.475 215.470 C 109.058 215.470,108.652 215.665,108.572 215.905 C 108.473 216.201,107.260 216.340,104.788 216.340 C 102.317 216.340,101.103 216.201,101.005 215.905 C 100.925 215.665,100.500 215.468,100.061 215.466 C 98.324 215.457,92.818 209.993,92.818 208.278 C 92.818 207.810,92.622 207.363,92.382 207.283 C 92.087 207.184,91.947 205.971,91.947 203.499 C 91.947 201.028,92.087 199.814,92.382 199.715 C 92.622 199.636,92.818 199.185,92.818 198.715 C 92.818 197.363,97.366 192.317,98.619 192.279 C 98.872 192.271,99.079 192.099,99.079 191.897 C 99.079 191.694,99.460 191.529,99.926 191.529 C 100.392 191.529,100.931 191.376,101.123 191.189 C 101.915 190.420,107.670 190.417,108.453 191.185 M160.171 191.131 C 165.026 193.488,168.171 196.941,168.576 200.356 C 168.698 201.388,168.940 202.319,169.113 202.427 C 169.523 202.680,169.523 204.318,169.113 204.572 C 168.940 204.679,168.700 205.588,168.582 206.591 C 168.360 208.460,167.958 209.385,166.667 210.990 C 165.199 212.815,162.426 215.077,161.326 215.346 C 160.820 215.470,160.195 215.737,159.937 215.940 C 159.217 216.508,153.509 216.472,152.266 215.891 C 151.678 215.617,150.673 215.143,150.033 214.838 C 149.024 214.358,147.009 212.537,145.418 210.667 C 144.549 209.646,144.069 208.585,143.821 207.136 C 143.686 206.351,143.395 205.176,143.174 204.525 C 142.881 203.664,142.883 203.111,143.180 202.499 C 143.405 202.036,143.688 200.946,143.809 200.076 C 144.092 198.035,144.508 197.343,146.961 194.824 C 149.342 192.380,151.701 191.012,154.144 190.658 C 155.566 190.451,159.390 190.752,160.171 191.131 M210.263 191.152 C 210.594 191.325,211.518 191.752,212.315 192.100 C 217.189 194.229,220.164 200.641,218.896 206.284 C 218.534 207.892,218.113 209.208,217.959 209.208 C 217.805 209.208,217.680 209.384,217.680 209.598 C 217.680 210.874,212.555 215.470,211.132 215.470 C 210.716 215.470,210.309 215.665,210.229 215.905 C 210.044 216.461,203.209 216.506,202.513 215.956 C 202.245 215.744,201.552 215.458,200.973 215.319 C 199.646 215.002,194.930 210.252,194.610 208.910 C 194.480 208.365,194.201 207.700,193.989 207.432 C 193.778 207.164,193.605 205.395,193.605 203.499 C 193.605 201.604,193.778 199.834,193.989 199.566 C 194.201 199.298,194.476 198.650,194.601 198.125 C 194.871 196.992,199.367 192.265,200.175 192.265 C 200.484 192.265,200.737 192.099,200.737 191.897 C 200.737 191.694,201.035 191.529,201.400 191.529 C 201.764 191.529,202.220 191.375,202.413 191.186 C 203.175 190.441,208.852 190.417,210.263 191.152 " stroke="none" fill="#f4bc04" fill-rule="evenodd"></path><path id="path1" d="M102.764 191.058 C 102.056 191.147,101.310 191.350,101.106 191.508 C 100.903 191.666,100.285 191.903,99.732 192.035 C 98.366 192.361,94.013 196.499,93.321 198.128 C 87.740 211.267,103.692 222.235,113.697 212.138 C 114.748 211.077,115.800 209.694,116.036 209.064 C 116.272 208.434,116.641 207.547,116.857 207.092 C 117.366 206.021,117.366 200.977,116.857 199.906 C 116.641 199.451,116.262 198.541,116.015 197.883 C 115.454 196.392,111.198 192.358,109.845 192.035 C 109.292 191.903,108.674 191.673,108.471 191.523 C 107.971 191.153,104.349 190.858,102.764 191.058 M154.148 191.058 C 153.341 191.145,152.512 191.346,152.307 191.505 C 152.102 191.665,151.494 191.900,150.956 192.028 C 146.518 193.087,142.709 200.688,143.918 206.071 C 147.613 222.522,171.442 217.147,168.333 200.564 C 167.751 197.463,163.781 192.622,161.326 192.021 C 160.820 191.897,160.239 191.673,160.037 191.523 C 159.533 191.151,155.941 190.867,154.148 191.058 M204.420 191.050 C 203.178 191.178,202.582 191.376,200.517 192.346 C 199.346 192.897,195.212 197.028,195.212 197.648 C 195.212 197.895,195.043 198.153,194.837 198.222 C 194.630 198.291,194.359 199.258,194.234 200.371 C 194.108 201.484,193.838 202.607,193.632 202.867 C 193.379 203.188,193.386 203.603,193.654 204.156 C 193.871 204.605,194.145 205.786,194.263 206.781 C 194.810 211.396,200.938 216.144,206.446 216.219 C 210.504 216.275,217.214 211.856,217.892 208.681 C 218.024 208.059,218.304 207.338,218.514 207.078 C 218.724 206.818,218.895 205.208,218.895 203.499 C 218.895 201.791,218.724 200.180,218.514 199.920 C 218.304 199.660,218.020 198.918,217.882 198.272 C 217.577 196.845,213.037 192.402,211.511 192.037 C 210.953 191.904,210.331 191.675,210.129 191.528 C 209.650 191.180,206.072 190.881,204.420 191.050 " stroke="none" fill="#fbfbfb" fill-rule="evenodd"></path><path id="path2" d="M95.396 82.505 L 95.396 143.278 161.326 143.278 C 205.034 143.278,227.256 143.402,227.256 143.646 C 227.256 143.849,227.929 144.015,228.751 144.015 C 229.573 144.015,230.156 144.160,230.046 144.338 C 229.826 144.695,231.539 145.120,233.195 145.120 C 233.778 145.120,234.254 145.305,234.254 145.531 C 234.254 145.757,234.574 145.859,234.965 145.756 C 235.359 145.653,235.984 145.856,236.364 146.211 C 236.743 146.563,237.666 146.967,238.415 147.107 C 239.165 147.248,239.779 147.521,239.779 147.715 C 239.779 147.908,240.176 148.066,240.660 148.066 C 241.145 148.066,241.641 148.325,241.763 148.642 C 241.884 148.959,242.137 149.123,242.325 149.007 C 242.513 148.891,242.908 149.038,243.204 149.334 C 243.500 149.630,244.176 149.981,244.707 150.114 C 245.238 150.247,245.672 150.522,245.672 150.724 C 245.672 150.926,245.922 150.996,246.228 150.878 C 246.554 150.753,246.971 150.966,247.237 151.392 C 247.487 151.791,247.882 152.118,248.115 152.118 C 248.349 152.118,248.635 152.366,248.752 152.670 C 248.869 152.974,249.235 153.223,249.567 153.223 C 249.899 153.223,250.490 153.630,250.881 154.127 C 251.293 154.651,251.819 154.944,252.131 154.824 C 252.428 154.710,252.670 154.775,252.670 154.968 C 252.670 155.589,254.332 157.274,254.944 157.274 C 255.270 157.274,255.641 157.689,255.768 158.195 C 255.907 158.749,256.262 159.116,256.659 159.116 C 257.474 159.116,258.932 160.426,258.932 161.157 C 258.932 161.620,260.360 163.161,262.463 164.965 C 262.871 165.316,262.927 165.553,262.644 165.728 C 262.386 165.887,262.579 166.168,263.161 166.479 C 263.671 166.752,264.088 167.268,264.088 167.625 C 264.088 167.982,264.427 168.382,264.840 168.513 C 265.365 168.680,265.527 168.957,265.378 169.429 C 265.229 169.898,265.389 170.178,265.896 170.339 C 266.342 170.481,266.549 170.780,266.424 171.105 C 266.312 171.399,266.390 171.639,266.598 171.639 C 266.806 171.639,267.087 172.144,267.223 172.762 C 267.359 173.379,267.786 174.082,268.173 174.323 C 268.560 174.565,268.877 174.898,268.877 175.064 C 268.877 175.230,268.694 175.253,268.472 175.115 C 268.195 174.944,268.202 175.119,268.496 175.667 C 268.732 176.108,269.150 176.555,269.426 176.661 C 269.701 176.767,270.037 177.504,270.171 178.299 C 270.305 179.095,270.566 179.652,270.751 179.538 C 270.935 179.424,271.087 179.672,271.087 180.089 C 271.087 180.506,271.242 180.847,271.432 180.847 C 271.622 180.847,271.701 181.469,271.609 182.228 C 271.480 183.289,271.522 183.439,271.791 182.873 C 272.106 182.207,272.142 182.233,272.166 183.149 C 272.180 183.706,272.344 184.162,272.529 184.162 C 272.715 184.162,272.821 184.742,272.765 185.451 C 272.708 186.160,272.805 186.740,272.979 186.740 C 273.154 186.740,273.297 187.238,273.297 187.845 C 273.297 188.453,273.462 188.950,273.665 188.950 C 273.867 188.950,274.033 189.448,274.033 190.055 C 274.033 190.663,274.162 191.160,274.319 191.160 C 274.476 191.160,274.540 191.843,274.460 192.677 C 274.364 193.689,274.483 194.303,274.819 194.519 C 275.239 194.789,275.230 194.904,274.770 195.206 C 274.400 195.449,274.370 195.571,274.678 195.574 C 275.033 195.579,275.138 197.601,275.138 204.442 C 275.138 210.705,275.021 213.231,274.739 213.057 C 274.471 212.891,274.375 213.359,274.445 214.496 C 274.502 215.424,274.432 216.298,274.291 216.440 C 274.149 216.581,274.033 217.250,274.033 217.925 C 274.033 218.600,273.867 219.153,273.665 219.153 C 273.462 219.153,273.297 219.567,273.297 220.074 C 273.297 220.580,273.103 220.994,272.867 220.994 C 272.630 220.994,272.542 221.099,272.670 221.227 C 272.798 221.355,272.726 221.789,272.510 222.192 C 272.227 222.721,272.231 222.855,272.523 222.675 C 272.754 222.532,272.928 222.681,272.928 223.020 C 272.928 223.374,272.757 223.510,272.506 223.356 C 272.215 223.176,272.142 223.397,272.271 224.070 C 272.405 224.768,272.303 225.046,271.916 225.046 C 271.518 225.046,271.438 225.298,271.614 225.998 C 271.769 226.615,271.718 226.866,271.470 226.713 C 271.252 226.578,271.087 226.803,271.087 227.234 C 271.087 227.651,270.924 227.993,270.725 227.993 C 270.527 227.993,270.252 228.448,270.116 229.006 C 269.980 229.563,269.769 230.101,269.649 230.203 C 269.075 230.684,268.543 232.074,268.738 232.582 C 268.858 232.894,268.772 233.149,268.548 233.149 C 268.323 233.149,268.140 233.380,268.140 233.662 C 268.140 233.944,267.891 234.271,267.587 234.387 C 267.284 234.504,267.035 234.853,267.035 235.163 C 267.035 235.474,266.858 235.727,266.642 235.727 C 266.422 235.727,266.348 236.039,266.473 236.434 C 266.634 236.943,266.482 237.210,265.930 237.385 C 265.392 237.556,265.227 237.831,265.378 238.306 C 265.527 238.778,265.365 239.055,264.840 239.222 C 264.427 239.353,264.086 239.739,264.083 240.080 C 264.078 240.615,264.028 240.624,263.720 240.147 C 263.412 239.670,263.362 239.679,263.357 240.213 C 263.354 240.553,263.100 241.083,262.793 241.390 C 262.485 241.698,262.278 242.100,262.332 242.284 C 262.387 242.469,261.436 243.569,260.221 244.730 C 259.006 245.891,258.218 246.734,258.471 246.603 C 258.725 246.472,258.932 246.549,258.932 246.773 C 258.932 246.998,258.432 247.391,257.821 247.648 C 257.210 247.905,256.819 248.225,256.953 248.358 C 257.086 248.492,256.882 248.721,256.498 248.868 C 255.491 249.252,254.974 249.695,253.235 251.657 C 252.741 252.215,252.077 252.670,251.759 252.670 C 251.441 252.670,250.991 253.087,250.759 253.596 C 250.468 254.237,250.138 254.459,249.692 254.318 C 249.256 254.179,248.969 254.357,248.808 254.865 C 248.677 255.279,248.326 255.617,248.030 255.617 C 247.733 255.617,247.402 255.849,247.293 256.133 C 247.184 256.417,246.526 256.756,245.831 256.887 C 245.136 257.017,244.567 257.282,244.567 257.475 C 244.567 257.669,244.352 257.827,244.088 257.827 C 243.825 257.827,243.413 258.024,243.173 258.264 C 242.932 258.504,242.368 258.757,241.918 258.826 C 241.468 258.894,241.008 259.099,240.896 259.280 C 240.784 259.462,240.238 259.724,239.683 259.863 C 239.128 260.003,238.674 260.264,238.674 260.445 C 238.674 260.626,238.272 260.773,237.780 260.773 C 237.288 260.773,236.636 261.022,236.333 261.326 C 236.029 261.630,235.437 261.878,235.017 261.878 C 234.597 261.878,234.254 262.028,234.254 262.212 C 234.254 262.395,233.550 262.475,232.689 262.390 C 231.513 262.274,231.307 262.322,231.860 262.583 C 232.496 262.884,232.433 262.935,231.400 262.958 C 230.741 262.972,230.203 263.149,230.203 263.352 C 230.203 263.554,229.567 263.720,228.791 263.720 C 228.014 263.720,227.291 263.808,227.184 263.915 C 227.077 264.022,210.640 264.102,190.659 264.094 C 166.336 264.083,154.328 264.201,154.328 264.452 C 154.328 264.657,154.145 264.825,153.921 264.825 C 153.505 264.825,113.444 304.739,113.444 305.154 C 113.444 305.471,111.135 307.551,110.783 307.551 C 110.626 307.551,110.497 307.799,110.497 308.103 C 110.497 308.407,110.249 308.656,109.945 308.656 C 109.641 308.656,109.392 308.904,109.392 309.208 C 109.392 309.512,109.251 309.761,109.077 309.761 C 108.698 309.761,103.131 315.052,103.131 315.413 C 103.131 315.731,101.098 317.716,99.321 319.132 C 97.977 320.204,97.974 320.212,97.974 323.086 L 97.974 325.967 165.009 325.967 C 209.454 325.967,232.044 325.843,232.044 325.599 C 232.044 325.388,233.149 325.230,234.622 325.230 C 236.153 325.230,237.201 325.075,237.201 324.849 C 237.201 324.605,237.862 324.556,239.042 324.712 C 240.309 324.881,240.884 324.827,240.884 324.541 C 240.884 324.294,241.556 324.125,242.541 324.125 C 243.453 324.125,244.199 323.975,244.199 323.792 C 244.199 323.609,244.869 323.549,245.689 323.659 C 246.825 323.811,247.153 323.740,247.070 323.359 C 246.993 323.003,247.304 322.890,248.158 322.968 C 248.834 323.029,249.355 322.903,249.355 322.680 C 249.355 322.462,249.853 322.284,250.460 322.284 C 251.068 322.284,251.565 322.128,251.565 321.938 C 251.565 321.747,252.165 321.691,252.912 321.812 C 253.880 321.969,254.184 321.911,253.995 321.604 C 253.823 321.326,254.048 321.179,254.644 321.179 C 255.145 321.179,255.640 320.971,255.742 320.718 C 255.889 320.357,256.003 320.363,256.272 320.745 C 256.552 321.143,256.722 321.126,257.195 320.653 C 257.513 320.335,258.025 320.074,258.331 320.074 C 258.638 320.074,258.987 319.913,259.109 319.717 C 259.230 319.521,259.861 319.453,260.512 319.564 C 261.414 319.719,261.563 319.674,261.142 319.374 C 260.683 319.047,260.730 318.979,261.418 318.974 C 261.874 318.971,262.247 318.803,262.247 318.600 C 262.247 318.398,262.564 318.232,262.953 318.232 C 263.341 318.232,263.755 318.025,263.874 317.772 C 264.037 317.421,264.138 317.416,264.296 317.751 C 264.556 318.300,265.548 317.954,266.371 317.027 C 266.715 316.640,267.170 316.431,267.384 316.563 C 267.597 316.694,267.772 316.627,267.772 316.412 C 267.772 316.198,268.089 316.022,268.478 316.022 C 268.866 316.022,269.267 315.815,269.369 315.562 C 269.494 315.253,269.565 315.241,269.584 315.527 C 269.618 316.018,271.087 315.739,271.087 315.242 C 271.087 315.064,271.335 314.917,271.639 314.917 C 271.943 314.917,272.192 314.765,272.192 314.578 C 272.192 314.392,272.689 314.130,273.297 313.996 C 273.904 313.863,274.401 313.619,274.401 313.454 C 274.401 313.290,274.847 313.043,275.393 312.907 C 275.938 312.770,276.683 312.312,277.050 311.890 C 277.459 311.418,277.716 311.309,277.716 311.607 C 277.716 312.201,278.266 311.715,278.277 311.111 C 278.282 310.875,278.572 310.730,278.922 310.790 C 279.272 310.849,279.558 310.743,279.558 310.553 C 279.558 310.364,279.979 310.103,280.494 309.974 C 281.009 309.845,281.330 309.578,281.209 309.381 C 281.087 309.185,281.163 309.024,281.378 309.024 C 281.592 309.024,281.773 309.231,281.779 309.484 C 281.785 309.738,281.961 309.651,282.170 309.292 C 282.379 308.934,282.705 308.736,282.894 308.853 C 283.083 308.970,283.432 308.639,283.670 308.119 C 283.969 307.461,284.298 307.234,284.746 307.377 C 285.187 307.516,285.470 307.334,285.639 306.803 C 285.781 306.356,286.096 306.104,286.378 306.213 C 286.927 306.423,287.791 305.593,287.415 305.217 C 287.283 305.085,287.694 304.874,288.328 304.747 C 289.008 304.611,289.573 304.226,289.706 303.808 C 289.864 303.311,290.141 303.167,290.637 303.324 C 291.026 303.448,291.345 303.413,291.346 303.248 C 291.347 303.082,291.774 302.449,292.294 301.842 C 292.814 301.234,293.135 300.944,293.007 301.197 C 292.518 302.165,293.427 301.604,294.047 300.555 C 294.405 299.949,295.041 299.269,295.460 299.045 C 296.010 298.751,296.152 298.750,295.971 299.042 C 295.461 299.868,296.343 299.379,297.053 298.443 C 298.382 296.692,301.283 293.794,301.496 294.006 C 301.812 294.323,306.077 290.040,306.077 289.406 C 306.077 288.906,306.920 288.062,309.936 285.544 C 310.481 285.088,310.859 284.509,310.775 284.258 C 310.602 283.739,311.078 283.180,312.206 282.576 C 312.631 282.348,313.076 281.673,313.196 281.074 C 313.321 280.447,313.717 279.889,314.129 279.759 C 314.522 279.634,314.939 279.152,315.056 278.687 C 315.172 278.223,315.728 277.627,316.290 277.363 C 316.907 277.073,317.123 276.815,316.836 276.712 C 316.488 276.586,316.548 276.376,317.059 275.931 C 317.444 275.596,317.876 274.949,318.020 274.494 C 318.164 274.038,318.436 273.665,318.625 273.665 C 318.814 273.665,318.969 273.442,318.969 273.169 C 318.969 272.556,320.256 271.024,320.536 271.304 C 320.649 271.416,320.849 271.012,320.982 270.407 C 321.115 269.802,321.462 269.215,321.754 269.103 C 322.045 268.991,322.284 268.563,322.284 268.152 C 322.284 267.740,322.444 267.403,322.640 267.403 C 322.837 267.403,322.902 267.155,322.785 266.851 C 322.669 266.547,322.757 266.298,322.981 266.298 C 323.205 266.298,323.389 266.067,323.389 265.785 C 323.389 265.503,323.637 265.177,323.941 265.060 C 324.245 264.944,324.494 264.594,324.494 264.284 C 324.494 263.974,324.659 263.720,324.862 263.720 C 325.064 263.720,325.230 263.406,325.230 263.023 C 325.230 262.639,325.479 262.230,325.783 262.114 C 326.087 261.997,326.335 261.482,326.335 260.969 C 326.335 260.456,326.483 260.037,326.664 260.037 C 326.844 260.037,327.106 259.583,327.245 259.028 C 327.385 258.473,327.647 257.927,327.828 257.815 C 328.010 257.702,328.216 257.231,328.287 256.768 C 328.358 256.304,328.629 255.793,328.890 255.631 C 329.273 255.395,329.268 255.299,328.863 255.138 C 328.507 254.996,328.494 254.930,328.821 254.909 C 329.075 254.893,329.284 254.507,329.287 254.052 C 329.292 253.402,329.367 253.339,329.633 253.760 C 329.877 254.146,330.044 253.759,330.226 252.386 C 330.366 251.335,330.606 250.552,330.760 250.647 C 331.079 250.845,331.479 249.575,331.487 248.343 C 331.489 247.887,331.677 247.514,331.903 247.514 C 332.133 247.514,332.229 247.189,332.122 246.777 C 332.016 246.372,332.079 246.041,332.263 246.041 C 332.446 246.041,332.597 245.709,332.597 245.304 C 332.597 244.899,332.762 244.567,332.965 244.567 C 333.168 244.567,333.333 244.143,333.333 243.625 C 333.333 243.005,333.479 242.772,333.759 242.945 C 334.064 243.133,334.119 242.877,333.953 242.046 C 333.819 241.378,333.873 240.884,334.079 240.884 C 334.277 240.884,334.438 240.470,334.438 239.963 C 334.438 239.457,334.585 239.042,334.764 239.042 C 335.256 239.042,335.496 237.251,335.029 237.059 C 334.768 236.950,334.787 236.880,335.083 236.861 C 335.345 236.845,335.543 236.346,335.543 235.706 C 335.543 234.959,335.684 234.666,335.961 234.837 C 336.251 235.016,336.326 234.736,336.207 233.922 C 336.112 233.276,336.173 232.663,336.341 232.559 C 336.510 232.454,336.648 231.799,336.648 231.102 C 336.648 230.405,336.814 229.834,337.017 229.834 C 337.219 229.834,337.387 229.130,337.391 228.269 C 337.394 227.240,337.506 226.877,337.716 227.208 C 337.935 227.553,338.082 227.233,338.180 226.195 C 338.260 225.361,338.196 224.678,338.039 224.678 C 337.882 224.678,337.753 224.429,337.753 224.125 C 337.753 223.821,337.919 223.573,338.122 223.573 C 338.324 223.573,338.490 223.006,338.490 222.314 C 338.490 221.622,338.697 220.972,338.950 220.870 C 339.319 220.721,339.319 220.678,338.950 220.655 C 338.697 220.639,338.490 220.285,338.490 219.868 C 338.490 219.392,338.647 219.206,338.912 219.370 C 339.220 219.560,339.283 218.921,339.145 216.998 C 339.041 215.549,339.100 214.365,339.276 214.365 C 339.709 214.365,339.689 193.472,339.255 193.204 C 339.065 193.086,339.009 191.755,339.129 190.178 C 339.286 188.097,339.230 187.431,338.916 187.626 C 338.611 187.814,338.490 187.247,338.490 185.635 C 338.490 184.202,338.354 183.466,338.115 183.613 C 337.868 183.766,337.823 183.145,337.983 181.785 C 338.182 180.092,338.132 179.761,337.702 179.926 C 337.292 180.084,337.210 179.810,337.321 178.645 C 337.409 177.724,337.308 177.164,337.055 177.164 C 336.831 177.164,336.648 176.594,336.648 175.897 C 336.648 175.199,336.505 174.540,336.329 174.432 C 336.154 174.324,336.090 173.817,336.188 173.305 C 336.286 172.794,336.197 172.376,335.991 172.376 C 335.784 172.376,335.500 171.381,335.359 170.166 C 335.218 168.950,334.953 167.956,334.770 167.956 C 334.588 167.956,334.438 167.541,334.438 167.035 C 334.438 166.529,334.269 166.114,334.063 166.114 C 333.856 166.114,333.782 165.737,333.899 165.274 C 334.120 164.391,333.250 162.268,332.837 162.682 C 332.705 162.814,332.597 162.480,332.597 161.940 C 332.597 161.400,332.446 160.958,332.263 160.958 C 332.079 160.958,332.016 160.626,332.122 160.221 C 332.229 159.809,332.133 159.484,331.903 159.484 C 331.677 159.484,331.492 158.999,331.492 158.406 C 331.492 157.812,331.267 157.103,330.993 156.828 C 330.719 156.554,330.373 155.520,330.225 154.530 C 330.034 153.257,329.858 152.883,329.624 153.253 C 329.373 153.650,329.292 153.571,329.287 152.925 C 329.284 152.457,329.137 152.164,328.961 152.273 C 328.784 152.382,328.548 151.788,328.436 150.952 C 328.324 150.117,328.067 149.331,327.866 149.207 C 327.664 149.082,327.385 148.527,327.246 147.973 C 327.101 147.396,326.826 147.070,326.602 147.208 C 326.358 147.359,326.297 147.223,326.441 146.849 C 326.568 146.519,326.510 146.149,326.313 146.027 C 326.116 145.905,326.051 145.650,326.168 145.460 C 326.286 145.270,326.123 145.015,325.806 144.894 C 325.489 144.772,325.230 144.442,325.230 144.159 C 325.230 143.877,325.064 143.646,324.862 143.646 C 324.659 143.646,324.494 143.310,324.494 142.898 C 324.494 142.487,324.245 142.055,323.941 141.938 C 323.637 141.821,323.389 141.495,323.389 141.213 C 323.389 140.931,323.205 140.700,322.981 140.700 C 322.757 140.700,322.669 140.451,322.785 140.147 C 322.902 139.843,322.848 139.595,322.666 139.595 C 322.484 139.595,322.278 139.222,322.208 138.766 C 322.139 138.310,321.896 137.973,321.669 138.017 C 321.442 138.060,321.142 137.492,321.004 136.753 C 320.817 135.758,320.665 135.547,320.418 135.937 C 320.145 136.369,320.084 136.347,320.079 135.820 C 320.076 135.465,319.919 135.175,319.730 135.175 C 319.541 135.175,319.269 134.802,319.125 134.346 C 318.981 133.890,318.562 133.306,318.195 133.047 C 317.827 132.788,317.614 132.347,317.722 132.067 C 317.837 131.767,317.604 131.459,317.154 131.316 C 316.300 131.045,316.151 130.535,316.851 130.282 C 317.116 130.186,316.877 129.911,316.290 129.635 C 315.728 129.371,315.172 128.775,315.056 128.311 C 314.939 127.847,314.522 127.364,314.129 127.240 C 313.717 127.109,313.321 126.551,313.196 125.924 C 313.076 125.326,312.631 124.650,312.206 124.422 C 311.078 123.819,310.602 123.259,310.775 122.741 C 310.858 122.489,310.759 122.284,310.553 122.284 C 310.347 122.284,310.076 121.961,309.951 121.566 C 309.825 121.171,309.397 120.745,308.999 120.618 C 308.075 120.325,306.081 118.212,306.079 117.524 C 306.077 116.940,302.204 113.076,301.621 113.076 C 301.416 113.076,300.719 112.579,300.072 111.972 C 299.425 111.365,298.782 110.868,298.644 110.867 C 298.505 110.866,298.293 110.553,298.171 110.170 C 298.050 109.787,297.549 109.042,297.059 108.513 C 296.159 107.541,295.509 107.209,295.971 107.956 C 296.152 108.248,296.010 108.247,295.460 107.953 C 295.041 107.729,294.405 107.049,294.047 106.443 C 293.689 105.837,293.256 105.341,293.085 105.341 C 292.914 105.341,292.875 105.505,292.999 105.705 C 293.130 105.916,292.977 105.974,292.637 105.844 C 292.314 105.720,292.109 105.442,292.181 105.226 C 292.377 104.637,291.069 103.487,290.465 103.718 C 290.149 103.840,289.846 103.632,289.709 103.201 C 289.577 102.783,289.021 102.390,288.384 102.262 C 287.781 102.142,287.330 101.836,287.382 101.583 C 287.434 101.330,287.112 101.067,286.666 100.998 C 286.219 100.930,285.750 100.546,285.623 100.145 C 285.459 99.629,285.186 99.482,284.685 99.641 C 284.296 99.765,283.978 99.720,283.978 99.543 C 283.978 99.365,283.717 98.898,283.398 98.505 C 283.079 98.112,282.923 97.997,283.052 98.250 C 283.180 98.504,283.120 98.711,282.919 98.711 C 282.719 98.711,282.442 98.357,282.305 97.926 C 282.108 97.304,281.986 97.246,281.721 97.649 C 281.445 98.068,281.319 98.044,281.006 97.514 C 280.797 97.159,280.386 96.869,280.092 96.869 C 279.798 96.869,279.558 96.686,279.558 96.462 C 279.558 96.237,279.303 96.152,278.991 96.271 C 278.624 96.412,278.308 96.199,278.094 95.666 C 277.912 95.214,277.753 95.076,277.740 95.360 C 277.724 95.720,277.513 95.643,277.050 95.109 C 276.683 94.686,275.938 94.228,275.393 94.092 C 274.847 93.955,274.401 93.708,274.401 93.544 C 274.401 93.379,273.904 93.135,273.297 93.002 C 272.689 92.868,272.192 92.607,272.192 92.420 C 272.192 92.234,271.943 92.081,271.639 92.081 C 271.335 92.081,271.087 91.906,271.087 91.691 C 271.087 91.476,270.932 91.396,270.744 91.513 C 270.555 91.629,270.286 91.539,270.145 91.311 C 269.964 91.018,269.797 91.043,269.573 91.397 C 269.340 91.765,269.255 91.775,269.251 91.436 C 269.247 91.183,268.913 90.976,268.508 90.976 C 268.103 90.976,267.772 90.801,267.772 90.586 C 267.772 90.371,267.597 90.304,267.384 90.436 C 267.170 90.567,266.678 90.309,266.290 89.862 C 265.766 89.257,265.346 89.109,264.653 89.283 C 264.112 89.418,263.720 89.359,263.720 89.141 C 263.720 88.935,263.389 88.766,262.983 88.766 C 262.578 88.766,262.247 88.583,262.247 88.358 C 262.247 88.134,262.010 88.041,261.721 88.152 C 261.432 88.263,261.006 88.125,260.773 87.845 C 260.541 87.566,260.132 87.421,259.863 87.524 C 259.594 87.627,259.265 87.534,259.132 87.318 C 258.998 87.102,258.638 86.924,258.331 86.924 C 258.025 86.924,257.513 86.664,257.195 86.345 C 256.722 85.872,256.552 85.855,256.272 86.253 C 256.003 86.635,255.889 86.641,255.742 86.280 C 255.640 86.027,255.031 85.817,254.389 85.814 C 253.462 85.809,253.336 85.728,253.775 85.415 C 254.192 85.118,253.989 85.069,252.947 85.213 C 252.187 85.319,251.565 85.250,251.565 85.060 C 251.565 84.870,251.068 84.715,250.460 84.715 C 249.853 84.715,249.355 84.536,249.355 84.318 C 249.355 84.101,248.900 83.952,248.343 83.989 C 246.821 84.090,246.511 83.965,247.330 83.580 C 247.865 83.329,247.537 83.271,246.133 83.368 C 245.018 83.445,244.199 83.348,244.199 83.139 C 244.199 82.927,243.575 82.860,242.702 82.977 C 241.569 83.129,241.152 83.041,240.990 82.617 C 240.819 82.173,240.401 82.105,238.988 82.293 C 237.849 82.444,237.201 82.392,237.201 82.149 C 237.201 81.923,236.153 81.768,234.622 81.768 C 233.149 81.768,232.044 81.610,232.044 81.400 C 232.044 81.157,222.038 81.031,202.762 81.031 L 173.481 81.031 173.481 51.381 L 173.481 21.731 134.438 21.731 L 95.396 21.731 95.396 82.505 " stroke="none" fill="#840c0c" fill-rule="evenodd"></path><path id="path3" d="M102.578 190.673 C 101.971 190.770,101.316 191.002,101.123 191.189 C 100.931 191.376,100.392 191.529,99.926 191.529 C 99.460 191.529,99.079 191.679,99.079 191.862 C 99.079 192.255,100.528 191.954,101.209 191.420 C 101.469 191.216,103.080 191.050,104.788 191.050 C 106.497 191.050,108.107 191.216,108.367 191.420 C 109.049 191.954,110.497 192.255,110.497 191.862 C 110.497 191.679,110.116 191.529,109.650 191.529 C 109.184 191.529,108.645 191.374,108.453 191.185 C 108.030 190.770,104.115 190.429,102.578 190.673 M153.959 190.675 C 153.250 190.768,152.513 190.998,152.320 191.186 C 152.128 191.375,151.682 191.529,151.329 191.529 C 150.977 191.529,150.595 191.679,150.482 191.863 C 150.228 192.273,151.759 191.927,152.394 191.431 C 153.007 190.951,159.318 190.938,159.926 191.415 C 160.574 191.923,162.115 192.280,161.857 191.863 C 161.744 191.679,161.362 191.529,161.010 191.529 C 160.657 191.529,160.211 191.374,160.018 191.185 C 159.592 190.767,155.731 190.442,153.959 190.675 M204.236 190.658 C 203.628 190.746,202.799 190.966,202.394 191.146 C 201.989 191.327,201.409 191.557,201.105 191.657 C 200.734 191.779,200.800 191.848,201.308 191.868 C 201.723 191.884,202.248 191.711,202.475 191.485 C 202.986 190.973,209.395 190.928,210.038 191.431 C 210.672 191.927,212.203 192.273,211.949 191.863 C 211.836 191.679,211.454 191.529,211.102 191.529 C 210.749 191.529,210.303 191.374,210.110 191.185 C 209.696 190.779,205.810 190.430,204.236 190.658 M96.805 193.476 C 94.858 195.178,92.813 197.760,92.848 198.469 C 92.865 198.817,93.091 198.593,93.374 197.949 C 93.647 197.327,94.966 195.794,96.304 194.542 C 98.820 192.189,99.198 191.384,96.805 193.476 M112.668 193.957 C 113.703 194.888,114.881 196.070,115.286 196.585 C 115.691 197.100,116.022 197.346,116.022 197.133 C 116.022 196.632,111.664 192.265,111.165 192.265 C 110.956 192.265,111.633 193.027,112.668 193.957 M197.410 194.517 C 195.063 196.900,194.172 198.158,194.831 198.158 C 195.040 198.158,195.212 197.971,195.212 197.743 C 195.212 197.216,197.545 194.608,199.205 193.278 C 199.901 192.721,200.280 192.265,200.048 192.265 C 199.816 192.265,198.629 193.278,197.410 194.517 M212.554 192.374 C 212.638 192.433,213.862 193.552,215.274 194.860 C 217.080 196.533,217.479 196.801,216.619 195.764 C 215.218 194.074,213.233 192.290,212.738 192.275 C 212.552 192.270,212.469 192.314,212.554 192.374 M146.967 194.654 C 146.282 195.360,145.794 195.994,145.882 196.063 C 145.969 196.133,146.598 195.555,147.280 194.780 C 148.830 193.018,148.630 192.938,146.967 194.654 M163.904 193.635 C 163.904 193.851,164.140 194.118,164.428 194.229 C 166.389 194.982,168.699 200.045,168.778 203.764 C 168.790 204.315,168.941 204.678,169.114 204.571 C 169.523 204.318,169.523 202.680,169.113 202.427 C 168.940 202.319,168.698 201.388,168.576 200.356 C 168.418 199.030,167.982 197.976,167.083 196.754 C 165.596 194.732,163.904 193.073,163.904 193.635 M144.454 197.763 C 144.192 198.355,143.905 199.474,143.818 200.249 L 143.658 201.657 144.017 200.184 C 144.215 199.374,144.636 198.255,144.953 197.698 C 145.270 197.141,145.395 196.685,145.230 196.685 C 145.066 196.685,144.717 197.170,144.454 197.763 M116.294 198.619 C 116.406 199.075,116.663 199.660,116.867 199.920 C 117.071 200.180,117.238 201.791,117.238 203.499 C 117.238 205.208,117.071 206.818,116.867 207.078 C 116.333 207.760,116.032 209.208,116.425 209.208 C 116.609 209.208,116.759 208.808,116.759 208.318 C 116.759 207.828,116.955 207.363,117.194 207.283 C 117.490 207.184,117.629 205.971,117.629 203.499 C 117.629 201.028,117.490 199.814,117.194 199.715 C 116.955 199.636,116.759 199.170,116.759 198.680 C 116.759 198.191,116.609 197.790,116.425 197.790 C 116.241 197.790,116.182 198.163,116.294 198.619 M217.961 198.727 C 218.057 199.231,218.258 199.718,218.407 199.810 C 218.556 199.902,218.599 199.566,218.503 199.063 C 218.407 198.559,218.206 198.072,218.057 197.980 C 217.908 197.888,217.865 198.224,217.961 198.727 M193.942 199.724 C 193.591 200.870,193.427 203.036,193.714 202.731 C 193.889 202.546,194.094 201.690,194.171 200.829 C 194.309 199.281,194.216 198.832,193.942 199.724 M92.076 200.645 C 92.073 201.202,91.966 202.072,91.837 202.578 C 91.709 203.085,91.737 203.376,91.900 203.226 C 92.325 202.836,92.762 199.632,92.391 199.632 C 92.221 199.632,92.079 200.087,92.076 200.645 M218.927 203.501 C 218.931 205.735,218.974 205.901,219.251 204.749 C 219.432 203.995,219.430 202.880,219.246 202.172 C 218.973 201.118,218.923 201.324,218.927 203.501 M143.155 202.455 C 142.811 202.800,142.859 204.138,143.238 204.735 C 143.441 205.056,143.540 204.695,143.514 203.722 C 143.493 202.891,143.458 202.210,143.438 202.210 C 143.417 202.210,143.290 202.320,143.155 202.455 M91.837 204.420 C 91.966 204.926,92.073 205.797,92.076 206.354 C 92.079 206.911,92.221 207.366,92.391 207.366 C 92.762 207.366,92.325 204.162,91.900 203.772 C 91.737 203.622,91.709 203.913,91.837 204.420 M193.630 205.572 C 193.894 207.679,194.350 208.175,194.170 206.160 C 194.094 205.304,193.896 204.460,193.730 204.283 C 193.564 204.107,193.519 204.687,193.630 205.572 M168.197 206.817 C 168.072 207.730,167.698 208.890,167.368 209.395 C 167.037 209.900,166.909 210.312,167.085 210.310 C 167.260 210.309,167.617 209.853,167.878 209.297 C 168.380 208.231,168.922 205.157,168.608 205.157 C 168.507 205.157,168.322 205.904,168.197 206.817 M143.818 206.749 C 143.998 208.341,144.780 210.313,145.230 210.313 C 145.395 210.313,145.270 209.857,144.953 209.300 C 144.636 208.743,144.215 207.624,144.017 206.814 L 143.658 205.341 143.818 206.749 M218.220 207.551 C 218.126 207.855,217.970 208.352,217.875 208.656 C 217.780 208.959,217.844 209.208,218.018 209.208 C 218.191 209.208,218.406 208.711,218.495 208.103 C 218.666 206.935,218.511 206.622,218.220 207.551 M92.848 208.523 C 92.782 209.850,98.446 215.480,99.816 215.449 C 100.120 215.443,99.788 215.130,99.079 214.754 C 97.473 213.904,93.953 210.351,93.338 208.959 C 93.062 208.337,92.865 208.162,92.848 208.523 M194.810 209.515 C 195.009 209.886,195.461 210.424,195.815 210.712 C 196.212 211.035,196.124 210.778,195.581 210.037 C 194.614 208.715,194.251 208.470,194.810 209.515 M115.654 209.818 C 115.654 210.390,111.804 214.055,110.439 214.783 C 109.762 215.144,109.439 215.446,109.720 215.454 C 110.945 215.491,116.487 210.287,115.875 209.675 C 115.753 209.553,115.654 209.618,115.654 209.818 M215.457 212.012 C 214.350 213.150,212.781 214.389,211.971 214.767 C 211.092 215.176,210.779 215.457,211.194 215.462 C 212.092 215.472,215.144 213.143,216.590 211.344 C 218.160 209.390,217.808 209.598,215.457 212.012 M146.092 211.510 C 146.443 211.966,147.321 212.826,148.043 213.421 C 148.976 214.190,148.828 213.951,147.528 212.592 C 145.581 210.557,145.049 210.157,146.092 211.510 M165.009 212.259 C 163.989 213.459,163.916 213.630,164.662 213.078 C 165.712 212.300,167.047 210.664,166.592 210.713 C 166.430 210.730,165.718 211.426,165.009 212.259 M196.317 211.522 C 196.317 211.592,196.814 212.125,197.422 212.707 C 198.029 213.289,198.527 213.600,198.527 213.398 C 198.527 213.195,198.029 212.662,197.422 212.213 C 196.814 211.764,196.317 211.453,196.317 211.522 M162.961 214.033 C 162.823 214.255,162.192 214.663,161.558 214.939 C 160.924 215.215,160.628 215.447,160.901 215.455 C 161.528 215.473,163.536 214.302,163.536 213.917 C 163.536 213.503,163.253 213.560,162.961 214.033 M198.895 213.912 C 198.895 214.388,201.390 215.676,201.704 215.361 C 201.847 215.218,201.711 215.101,201.400 215.101 C 201.090 215.101,200.399 214.758,199.866 214.338 C 199.332 213.918,198.895 213.726,198.895 213.912 M150.070 214.897 C 150.464 215.212,151.044 215.457,151.360 215.441 C 151.856 215.415,151.858 215.384,151.381 215.207 C 151.077 215.094,150.497 214.849,150.092 214.663 C 149.367 214.329,149.367 214.333,150.070 214.897 M152.472 215.971 C 152.976 216.475,159.380 216.458,159.888 215.950 C 160.143 215.695,159.608 215.677,158.216 215.895 C 157.053 216.078,155.286 216.078,154.122 215.895 C 152.662 215.666,152.189 215.688,152.472 215.971 M202.477 215.855 C 202.851 216.190,206.464 216.655,206.135 216.325 C 205.996 216.186,205.052 215.966,204.037 215.836 C 203.023 215.706,202.321 215.714,202.477 215.855 M208.570 215.842 C 207.713 215.967,206.898 216.184,206.758 216.324 C 206.507 216.575,209.986 216.226,210.282 215.970 C 210.630 215.671,210.041 215.626,208.570 215.842 M100.952 215.970 C 101.036 216.043,101.934 216.208,102.947 216.336 C 104.204 216.495,104.613 216.455,104.236 216.209 C 103.737 215.884,100.586 215.655,100.952 215.970 M105.341 216.209 C 104.964 216.455,105.373 216.495,106.630 216.336 C 107.643 216.208,108.541 216.043,108.625 215.970 C 108.991 215.655,105.839 215.884,105.341 216.209 " stroke="none" fill="#f4c56a" fill-rule="evenodd"></path><path id="path4" d="M232.044 81.400 C 232.044 81.602,232.459 81.768,232.965 81.768 C 233.471 81.768,233.886 81.602,233.886 81.400 C 233.886 81.197,233.471 81.031,232.965 81.031 C 232.459 81.031,232.044 81.197,232.044 81.400 M237.201 82.136 C 237.201 82.339,237.532 82.505,237.937 82.505 C 238.343 82.505,238.674 82.339,238.674 82.136 C 238.674 81.934,238.343 81.768,237.937 81.768 C 237.532 81.768,237.201 81.934,237.201 82.136 M240.953 82.528 C 241.042 82.794,241.332 83.084,241.598 83.172 C 241.874 83.264,242.012 83.126,241.920 82.850 C 241.831 82.584,241.541 82.294,241.275 82.205 C 240.999 82.113,240.861 82.251,240.953 82.528 M260.770 87.841 C 261.020 88.143,261.390 88.288,261.591 88.164 C 261.813 88.026,261.761 87.813,261.457 87.621 C 260.663 87.117,260.273 87.242,260.770 87.841 M278.140 95.746 C 278.298 96.221,278.803 96.306,278.849 95.866 C 278.864 95.719,278.678 95.532,278.435 95.451 C 278.192 95.370,278.059 95.503,278.140 95.746 M287.477 101.657 C 287.352 101.860,287.328 102.026,287.425 102.026 C 287.522 102.026,287.865 102.127,288.188 102.251 C 288.617 102.416,288.713 102.317,288.547 101.883 C 288.289 101.211,287.815 101.111,287.477 101.657 M292.327 104.850 C 291.937 105.239,292.039 105.614,292.592 105.826 C 292.950 105.964,293.047 105.811,292.917 105.313 C 292.711 104.525,292.677 104.499,292.327 104.850 M294.373 106.875 C 294.516 107.306,296.133 108.527,296.133 108.204 C 296.133 107.907,294.770 106.446,294.493 106.446 C 294.348 106.446,294.294 106.639,294.373 106.875 M297.974 109.701 C 297.974 109.933,298.495 110.580,299.131 111.139 C 299.766 111.698,300.501 112.362,300.762 112.615 C 301.023 112.868,301.426 113.076,301.657 113.076 C 302.032 113.076,301.168 112.155,298.753 109.980 C 298.325 109.594,297.974 109.468,297.974 109.701 M306.079 117.715 C 306.081 118.172,308.242 120.442,308.674 120.442 C 309.268 120.442,309.063 119.901,308.195 119.183 C 307.739 118.806,307.076 118.246,306.722 117.939 C 306.367 117.632,306.078 117.531,306.079 117.715 M310.743 122.897 C 310.627 123.013,310.781 123.357,311.085 123.660 C 311.389 123.964,311.732 124.118,311.848 124.002 C 311.964 123.887,311.810 123.543,311.506 123.239 C 311.202 122.936,310.859 122.782,310.743 122.897 M313.081 125.796 C 313.091 126.430,313.765 127.242,314.046 126.960 C 314.197 126.809,314.041 126.406,313.698 126.063 C 313.356 125.721,313.078 125.600,313.081 125.796 M314.923 128.058 C 314.933 128.623,315.612 129.446,315.862 129.197 C 315.998 129.060,315.841 128.680,315.513 128.352 C 315.185 128.024,314.920 127.892,314.923 128.058 M317.707 132.184 C 317.466 132.574,318.519 133.538,318.837 133.219 C 318.958 133.099,318.799 132.742,318.484 132.427 C 318.168 132.112,317.819 132.003,317.707 132.184 M319.112 134.280 C 319.236 134.603,319.337 134.936,319.337 135.021 C 319.337 135.106,319.503 135.175,319.705 135.175 C 320.305 135.175,320.125 134.168,319.480 133.921 C 319.046 133.754,318.947 133.851,319.112 134.280 M226.151 143.646 C 226.151 143.849,226.400 144.015,226.703 144.015 C 227.007 144.015,227.256 143.849,227.256 143.646 C 227.256 143.444,227.007 143.278,226.703 143.278 C 226.400 143.278,226.151 143.444,226.151 143.646 M229.024 144.457 C 229.368 144.800,229.564 144.800,229.908 144.457 C 230.252 144.113,230.153 144.015,229.466 144.015 C 228.778 144.015,228.680 144.113,229.024 144.457 M331.492 158.932 C 331.492 159.236,331.657 159.484,331.860 159.484 C 332.063 159.484,332.228 159.236,332.228 158.932 C 332.228 158.628,332.063 158.379,331.860 158.379 C 331.657 158.379,331.492 158.628,331.492 158.932 M256.722 159.283 C 256.722 159.502,258.546 161.326,258.764 161.326 C 259.195 161.326,258.853 160.545,258.126 159.867 C 257.374 159.167,256.722 158.896,256.722 159.283 M261.860 165.074 C 262.271 165.516,262.700 165.784,262.813 165.671 C 263.065 165.419,261.963 164.273,261.469 164.273 C 261.273 164.273,261.449 164.633,261.860 165.074 M335.543 171.823 C 335.543 172.127,335.709 172.376,335.912 172.376 C 336.114 172.376,336.280 172.127,336.280 171.823 C 336.280 171.519,336.114 171.271,335.912 171.271 C 335.709 171.271,335.543 171.519,335.543 171.823 M337.753 183.079 C 337.753 183.496,337.919 183.735,338.122 183.610 C 338.324 183.484,338.490 183.143,338.490 182.851 C 338.490 182.559,338.324 182.320,338.122 182.320 C 337.919 182.320,337.753 182.662,337.753 183.079 M338.490 186.924 C 338.490 187.474,338.648 187.791,338.858 187.661 C 339.061 187.536,339.227 187.204,339.227 186.924 C 339.227 186.645,339.061 186.313,338.858 186.188 C 338.648 186.058,338.490 186.375,338.490 186.924 M338.858 192.243 C 338.858 192.637,339.024 193.061,339.227 193.186 C 339.435 193.315,339.595 193.006,339.595 192.471 C 339.595 191.953,339.429 191.529,339.227 191.529 C 339.024 191.529,338.858 191.850,338.858 192.243 M338.858 214.917 C 338.858 215.221,339.024 215.470,339.227 215.470 C 339.429 215.470,339.595 215.221,339.595 214.917 C 339.595 214.613,339.429 214.365,339.227 214.365 C 339.024 214.365,338.858 214.613,338.858 214.917 M338.490 219.868 C 338.490 220.285,338.656 220.626,338.858 220.626 C 339.061 220.626,339.227 220.387,339.227 220.095 C 339.227 219.803,339.061 219.462,338.858 219.337 C 338.656 219.212,338.490 219.451,338.490 219.868 M337.753 224.125 C 337.753 224.429,337.919 224.678,338.122 224.678 C 338.324 224.678,338.490 224.429,338.490 224.125 C 338.490 223.821,338.324 223.573,338.122 223.573 C 337.919 223.573,337.753 223.821,337.753 224.125 M261.510 242.910 C 261.254 243.218,261.214 243.462,261.420 243.462 C 261.623 243.462,261.995 243.214,262.247 242.910 C 262.503 242.602,262.542 242.357,262.337 242.357 C 262.134 242.357,261.762 242.606,261.510 242.910 M257.830 247.143 C 257.361 247.550,257.137 247.882,257.332 247.882 C 257.879 247.882,259.142 246.865,258.898 246.621 C 258.779 246.502,258.298 246.737,257.830 247.143 M331.492 248.066 C 331.492 248.370,331.657 248.619,331.860 248.619 C 332.063 248.619,332.228 248.370,332.228 248.066 C 332.228 247.762,332.063 247.514,331.860 247.514 C 331.657 247.514,331.492 247.762,331.492 248.066 M228.913 263.352 C 228.788 263.554,229.027 263.720,229.444 263.720 C 229.861 263.720,230.203 263.554,230.203 263.352 C 230.203 263.149,229.964 262.983,229.672 262.983 C 229.380 262.983,229.039 263.149,228.913 263.352 M319.192 272.406 C 318.846 273.307,318.922 273.396,319.521 272.797 C 320.147 272.170,320.227 271.823,319.745 271.823 C 319.564 271.823,319.315 272.085,319.192 272.406 M318.087 274.247 C 317.741 275.149,317.817 275.238,318.416 274.638 C 319.042 274.012,319.122 273.665,318.640 273.665 C 318.459 273.665,318.210 273.927,318.087 274.247 M315.141 278.299 C 314.795 279.200,314.870 279.289,315.470 278.690 C 316.096 278.064,316.176 277.716,315.693 277.716 C 315.512 277.716,315.264 277.979,315.141 278.299 M313.299 280.509 C 312.980 281.341,313.010 281.402,313.628 281.165 C 313.932 281.048,314.180 280.722,314.180 280.439 C 314.180 279.742,313.575 279.789,313.299 280.509 M310.980 283.400 C 310.386 284.077,310.823 284.442,311.462 283.803 C 311.742 283.523,311.971 283.199,311.971 283.083 C 311.971 282.713,311.432 282.885,310.980 283.400 M307.188 287.840 C 306.503 288.546,306.018 289.198,306.109 289.288 C 306.308 289.488,309.024 287.185,309.024 286.816 C 309.024 286.253,308.376 286.614,307.188 287.840 M299.459 295.577 C 298.553 296.469,297.907 297.293,298.024 297.410 C 298.234 297.620,301.657 294.532,301.657 294.132 C 301.657 293.629,300.994 294.065,299.459 295.577 M294.976 299.416 C 294.498 299.804,294.230 300.244,294.381 300.396 C 294.531 300.547,294.987 300.287,295.394 299.819 C 296.545 298.491,296.350 298.303,294.976 299.416 M287.751 304.849 C 287.496 304.951,287.382 305.187,287.496 305.372 C 287.809 305.879,288.293 305.778,288.531 305.157 C 288.748 304.591,288.567 304.520,287.751 304.849 M240.884 324.494 C 240.884 324.696,241.133 324.862,241.436 324.862 C 241.740 324.862,241.989 324.696,241.989 324.494 C 241.989 324.291,241.740 324.125,241.436 324.125 C 241.133 324.125,240.884 324.291,240.884 324.494 M237.201 324.862 C 237.201 325.064,237.532 325.230,237.937 325.230 C 238.343 325.230,238.674 325.064,238.674 324.862 C 238.674 324.659,238.343 324.494,237.937 324.494 C 237.532 324.494,237.201 324.659,237.201 324.862 M232.044 325.599 C 232.044 325.801,232.459 325.967,232.965 325.967 C 233.471 325.967,233.886 325.801,233.886 325.599 C 233.886 325.396,233.471 325.230,232.965 325.230 C 232.459 325.230,232.044 325.396,232.044 325.599 " stroke="none" fill="#942f0c" fill-rule="evenodd"></path></g></svg>